<?xml version="1.0" standalone="no"?>
<!DOCTYPE svg PUBLIC "-//W3C//DTD SVG 20010904//EN"
 "http://www.w3.org/TR/2001/REC-SVG-20010904/DTD/svg10.dtd">
<svg version="1.0" xmlns="http://www.w3.org/2000/svg"
 width="700.000000pt" height="700.000000pt" viewBox="0 0 700.000000 700.000000"
 preserveAspectRatio="xMidYMid meet">
<metadata>
Created by potrace 1.14, written by Peter Selinger 2001-2017
</metadata>
<g transform="translate(0.000000,700.000000) scale(0.100000,-0.100000)"
fill="#000000" stroke="none">
<path d="M3338 6756 c-1 -2 -52 -6 -112 -10 -60 -4 -112 -8 -115 -10 -3 -2
-33 -7 -66 -11 -301 -34 -751 -177 -1040 -330 -377 -201 -605 -379 -949 -746
-195 -207 -409 -545 -535 -844 -59 -142 -73 -176 -76 -185 0 -3 -13 -41 -27
-85 -31 -92 -68 -218 -74 -249 -2 -12 -8 -41 -14 -66 -16 -74 -44 -237 -54
-320 -27 -222 -27 -543 -2 -775 34 -301 113 -629 207 -850 7 -16 13 -32 14
-35 23 -69 172 -360 215 -420 11 -16 20 -31 20 -34 0 -13 135 -204 208 -296
111 -138 123 -152 272 -300 508 -508 1181 -836 1896 -925 120 -15 559 -22 684
-10 680 61 1331 339 1849 790 89 77 280 271 358 365 110 132 234 305 295 410
96 166 129 232 192 374 116 262 217 620 242 854 3 30 8 65 10 76 18 89 24 464
11 631 -37 462 -187 958 -404 1335 -91 159 -276 432 -312 460 -3 3 -24 28 -45
55 -66 83 -324 336 -432 423 -96 77 -315 230 -379 266 -16 9 -46 26 -65 38
-47 28 -208 109 -295 148 -283 129 -632 224 -930 255 -33 4 -71 9 -85 11 -29
5 -456 14 -462 10z m482 -259 c14 -3 52 -9 85 -13 33 -4 62 -8 65 -9 3 0 26
-4 51 -8 142 -23 255 -52 434 -112 226 -75 404 -157 585 -266 39 -24 79 -49
88 -54 169 -100 433 -325 612 -521 225 -245 442 -596 560 -904 17 -47 36 -94
41 -105 8 -20 65 -203 74 -241 18 -72 55 -254 60 -297 4 -29 8 -54 10 -57 17
-28 26 -556 12 -710 -26 -290 -118 -642 -236 -903 -172 -378 -369 -666 -647
-941 -395 -392 -885 -661 -1434 -789 -92 -22 -138 -31 -265 -52 -140 -23 -700
-24 -828 0 -15 3 -53 9 -85 15 -31 5 -68 11 -82 14 -62 10 -215 50 -320 83
-852 264 -1534 895 -1858 1720 -48 120 -127 369 -138 430 -3 16 -12 57 -20 92
-8 36 -17 80 -19 99 -2 19 -6 42 -9 51 -3 9 -7 43 -11 76 -3 33 -8 74 -10 90
-9 67 -16 217 -16 335 1 151 5 217 27 409 5 46 14 103 19 121 2 8 6 31 9 51
17 116 76 326 138 494 90 242 263 565 395 735 421 545 988 918 1653 1089 272
70 442 89 770 86 146 -1 276 -5 290 -8z"/>
<path d="M3417 6234 c-1 -1 -51 -4 -112 -8 -60 -3 -126 -9 -145 -11 -137 -20
-189 -30 -295 -55 -380 -90 -729 -260 -1060 -517 -355 -276 -641 -649 -828
-1080 -54 -126 -132 -378 -163 -528 -26 -129 -30 -161 -40 -310 -12 -183 -6
-496 11 -580 2 -11 6 -38 9 -60 3 -22 8 -51 11 -65 3 -14 8 -41 11 -60 18
-116 93 -359 160 -518 189 -451 498 -841 914 -1155 316 -238 795 -437 1185
-492 17 -2 66 -9 110 -16 120 -17 537 -14 665 6 215 33 412 81 576 140 804
290 1448 969 1688 1780 31 106 58 217 72 295 2 14 6 34 9 45 2 11 7 43 10 70
4 28 8 61 10 75 10 57 18 213 17 333 0 171 -11 284 -43 462 -97 526 -352 1027
-712 1395 -235 240 -457 408 -720 544 -332 172 -690 274 -1048 301 -82 6 -287
13 -292 9z m317 -258 c455 -50 859 -203 1226 -466 110 -79 124 -92 245 -209
248 -241 355 -384 507 -671 58 -110 151 -342 173 -430 2 -8 13 -51 25 -95 11
-44 23 -91 25 -105 2 -14 9 -49 15 -79 6 -30 13 -84 16 -120 3 -36 7 -79 9
-96 6 -43 6 -368 0 -445 -8 -91 -30 -214 -64 -355 -147 -602 -523 -1140 -1026
-1468 -60 -40 -119 -78 -130 -85 -55 -34 -263 -134 -356 -170 -300 -117 -557
-165 -879 -166 -378 -1 -658 53 -983 188 -163 68 -394 198 -498 280 -15 12
-39 30 -55 41 -96 68 -277 240 -374 355 -30 36 -58 67 -61 70 -3 3 -36 48 -73
100 -228 319 -379 689 -440 1080 -11 67 -20 256 -20 395 0 125 11 312 19 325
2 3 6 27 9 54 35 262 176 641 333 894 45 73 140 211 153 222 3 3 13 15 22 28
27 39 140 163 223 243 105 102 236 207 360 288 93 61 405 227 405 215 0 -2 10
1 23 7 53 29 293 102 422 129 149 31 184 36 310 46 44 4 81 7 82 8 6 5 304 -2
357 -8z"/>
<path d="M3118 5233 c-56 -16 -117 -72 -148 -137 -26 -54 -35 -191 -19 -280
18 -98 98 -184 189 -203 25 -5 191 -8 370 -8 305 1 328 3 370 22 112 51 158
143 155 308 -2 114 -23 181 -76 235 -72 74 -72 74 -455 75 -256 1 -352 -2
-386 -12z"/>
<path d="M2475 4523 c-124 -38 -212 -148 -223 -279 l-4 -60 -268 0 c-293 -1
-309 -4 -330 -60 -14 -36 -12 -124 3 -154 25 -51 50 -55 335 -54 l262 0 0
-222 0 -222 -270 0 c-294 0 -309 -2 -330 -58 -14 -36 -12 -124 3 -154 26 -52
51 -56 335 -55 l262 1 0 -222 0 -222 -237 0 c-131 0 -253 -1 -270 -1 -21 -1
-44 -11 -63 -28 -27 -25 -31 -35 -33 -91 -4 -73 13 -117 52 -136 19 -9 94 -12
288 -12 l261 1 4 -155 c3 -136 6 -161 26 -205 32 -70 104 -141 172 -167 52
-21 71 -22 395 -23 359 -2 401 2 469 45 52 32 113 105 135 164 19 50 20 77 18
1096 l-2 1045 -26 56 c-33 69 -88 124 -159 158 l-55 26 -350 2 c-290 1 -359
-1 -400 -14z"/>
<path d="M3830 4534 c-112 -20 -221 -118 -252 -229 -12 -44 -18 -1988 -6
-2083 15 -122 101 -224 222 -265 41 -13 685 -17 745 -4 57 12 140 64 175 109
58 77 69 121 71 283 l2 150 277 0 278 0 29 33 c25 28 29 40 29 92 0 73 -10
101 -45 124 -25 16 -55 18 -284 18 -141 0 -262 -2 -270 -3 -12 -3 -14 32 -15
211 -1 118 0 220 1 226 3 7 88 10 258 9 139 0 268 3 284 8 42 11 61 44 65 115
4 68 -12 112 -48 132 -17 9 -95 12 -284 12 -143 0 -264 -2 -268 -5 -7 -4 -11
365 -5 436 1 11 53 13 262 13 286 -1 306 2 331 55 19 39 15 138 -6 172 -10 14
-32 29 -49 33 -18 4 -146 8 -286 8 l-255 1 -3 53 c-5 112 -85 226 -191 275
-45 21 -61 22 -392 23 -190 1 -356 0 -370 -2z"/>
</g>
</svg>
